<svg data-v-fde0c5aa="" xmlns="http://www.w3.org/2000/svg" viewBox="0 0 300 300" class="iconLeft"><!----><defs data-v-fde0c5aa=""><!----></defs><rect data-v-fde0c5aa="" fill="transparent" x="0" y="0" width="300px" height="300px" class="logo-background-square"></rect><defs data-v-fde0c5aa=""><!----></defs><g data-v-fde0c5aa="" id="40efcf12-8ce5-4c2b-ad23-175f2cecc097" fill="#000000" transform="matrix(2.344679282098222,0,0,2.344679282098222,100.65560596143428,126.96352594158193)"><path d="M1.23 4.36L1.23 13.34C2.34 13.58 3.91 13.73 5.17 13.73C8.00 13.73 9.83 11.65 9.83 8.94C9.83 5.99 7.46 4.36 4.96 4.36ZM3.79 6.75L4.83 6.75C6.33 6.75 7.21 7.66 7.21 9.08C7.21 10.43 6.62 11.33 5.04 11.33C4.66 11.33 4.20 11.29 3.79 11.17ZM15.78 4.16C13.29 4.16 10.92 5.91 10.92 8.94C10.92 11.98 13.29 13.73 15.78 13.73C16.73 13.73 17.58 13.45 18.20 12.92L18.20 10.45C17.47 11.03 16.93 11.33 15.87 11.33C14.64 11.33 13.55 10.31 13.55 8.94C13.55 7.57 14.64 6.55 15.87 6.55C16.93 6.55 17.47 6.85 18.20 7.44L18.20 4.96C17.58 4.43 16.73 4.16 15.78 4.16ZM24.13 6.34C23.13 6.34 22.39 6.95 22.05 7.71L22.05 6.55L19.70 6.55L19.70 16.80L22.05 16.80L22.05 12.88C22.50 13.37 23.27 13.73 23.99 13.73C25.69 13.73 27.14 12.40 27.14 10.05C27.14 7.52 25.69 6.34 24.13 6.34ZM23.43 8.72C24.19 8.72 24.68 9.30 24.68 10.05C24.68 10.79 24.19 11.43 23.50 11.43C22.98 11.43 22.46 11.18 22.05 10.86L22.05 10.19C22.05 9.17 22.85 8.72 23.43 8.72ZM32.72 6.41C31.84 6.41 31.36 7.05 30.93 7.79L30.93 6.55L28.57 6.55L28.57 13.52L30.93 13.52L30.93 9.94C31.24 9.32 31.73 8.90 32.38 8.90C32.85 8.90 33.17 9.02 33.51 9.23L33.51 6.62C33.28 6.49 33.02 6.41 32.72 6.41ZM38.09 6.34C36.15 6.34 34.26 7.89 34.26 10.04C34.26 12.18 36.15 13.73 38.09 13.73C40.03 13.73 41.92 12.18 41.92 10.04C41.92 7.89 40.03 6.34 38.09 6.34ZM38.09 8.60C38.60 8.60 39.39 8.85 39.39 10.04C39.39 11.22 38.60 11.47 38.09 11.47C37.58 11.47 36.79 11.22 36.79 10.04C36.79 8.85 37.58 8.60 38.09 8.60ZM45.19 5.48C45.96 5.48 46.66 4.84 46.66 4.06C46.66 3.27 45.96 2.64 45.19 2.64C44.39 2.64 43.71 3.27 43.71 4.06C43.71 4.84 44.39 5.48 45.19 5.48ZM46.43 6.55L42.94 6.55L42.94 8.46L44.08 8.46L44.08 13.37C44.08 14.18 43.53 14.68 42.82 15.00L43.85 17.01C45.55 16.46 46.43 15.30 46.43 13.40ZM55.18 9.87C55.18 7.72 53.77 6.34 51.80 6.34C49.70 6.34 48.10 8.07 48.10 10.14C48.10 12.36 49.96 13.73 51.94 13.73C52.98 13.73 53.76 13.52 54.24 13.22L54.24 11.21C53.85 11.43 53.13 11.68 52.08 11.68C51.28 11.68 50.63 11.35 50.42 10.65L55.18 10.65ZM50.45 9.34C50.64 8.63 51.12 8.29 51.73 8.29C52.35 8.29 52.95 8.68 52.95 9.34ZM59.68 6.34C57.60 6.34 56 8.13 56 10.08C56 12.02 57.60 13.73 59.68 13.73C60.74 13.73 61.22 13.38 61.70 13.02L61.70 10.96C61.28 11.27 60.77 11.47 59.99 11.47C59.21 11.47 58.53 10.99 58.53 10.08C58.53 9.16 59.35 8.67 59.99 8.67C60.77 8.67 61.28 8.87 61.70 9.17L61.70 7.12C61.22 6.75 60.74 6.34 59.68 6.34ZM66.05 6.55L66.05 4.50L64.79 4.50C64.38 5.96 63.41 6.73 62.52 6.96L62.52 8.39L63.70 8.39L63.70 11.21C63.70 12.80 64.82 13.73 66.12 13.73C67.02 13.73 67.66 13.37 67.96 12.97L67.96 11.14C67.62 11.35 67.29 11.44 66.86 11.44C66.35 11.44 66.05 11.02 66.05 10.35L66.05 8.39L67.88 8.39L67.88 6.55Z"></path></g><defs data-v-fde0c5aa=""><linearGradient data-v-fde0c5aa="" gradientTransform="rotate(25)" id="61f828b8-715d-4acd-ae00-fabd1902ecea" x1="0%" y1="0%" x2="100%" y2="0%"><stop data-v-fde0c5aa="" offset="0%" stop-color="#D0E90D" stop-opacity="1"></stop><stop data-v-fde0c5aa="" offset="100%" stop-color="#1536F1" stop-opacity="1"></stop></linearGradient></defs><g data-v-fde0c5aa="" id="c003f449-ee98-4b13-a06f-0c77fa3279bb" stroke="none" fill="url(#61f828b8-715d-4acd-ae00-fabd1902ecea)" transform="matrix(1.5793612975980094,0,0,1.5793612975980094,40,124.73021923843186)"><path d="M4.029 14.362L14.362 4.028l.707.707L4.736 15.07zM17.135 27.47L27.47 17.135l.707.707-10.333 10.333zM4.029 17.841l.707-.707 10.333 10.334-.707.707zM17.135 4.735l.708-.707L28.176 14.36l-.707.707z"></path><g><path d="M16 1.414l1.683 1.683L16 4.779l-1.683-1.683L16 1.414M16 0l-3.097 3.097L16 6.194l3.097-3.097L16 0zM16 27.221l1.683 1.683L16 30.586l-1.683-1.683L16 27.221m0-1.415l-3.097 3.097L16 32l3.097-3.097L16 25.806zM3.097 14.317L4.779 16l-1.683 1.683L1.414 16l1.683-1.683m0-1.414L0 16l3.097 3.097L6.194 16l-3.097-3.097zM28.903 14.317L30.586 16l-1.683 1.683L27.221 16l1.682-1.683m0-1.414L25.806 16l3.097 3.097L32 16l-3.097-3.097z"></path></g></g><!----></svg>